<svg width="48" height="48" viewBox="0 0 48 48" fill="none" xmlns="http://www.w3.org/2000/svg">
<rect y="0.000183105" width="48" height="48" rx="24" fill="#F4F0FF"/>
<path d="M10.68 33V15.72H17.976C18.144 15.72 18.368 15.728 18.648 15.744C18.936 15.752 19.192 15.776 19.416 15.816C20.448 15.976 21.292 16.316 21.948 16.836C22.612 17.356 23.1 18.012 23.412 18.804C23.724 19.588 23.88 20.464 23.88 21.432C23.88 22.4 23.72 23.28 23.4 24.072C23.088 24.856 22.6 25.508 21.936 26.028C21.28 26.548 20.44 26.888 19.416 27.048C19.192 27.08 18.936 27.104 18.648 27.12C18.36 27.136 18.136 27.144 17.976 27.144H13.944V33H10.68ZM13.944 24.096H17.832C18 24.096 18.184 24.088 18.384 24.072C18.584 24.056 18.768 24.024 18.936 23.976C19.376 23.856 19.716 23.656 19.956 23.376C20.196 23.088 20.36 22.772 20.448 22.428C20.544 22.076 20.592 21.744 20.592 21.432C20.592 21.12 20.544 20.792 20.448 20.448C20.36 20.096 20.196 19.78 19.956 19.5C19.716 19.212 19.376 19.008 18.936 18.888C18.768 18.84 18.584 18.808 18.384 18.792C18.184 18.776 18 18.768 17.832 18.768H13.944V24.096Z" fill="#124072"/>
<path d="M26.7294 33V15.72H29.9934V29.952H37.4334V33H26.7294Z" fill="#90C841"/>
</svg>
